<svg width="228" height="228" viewBox="0 0 228 228" fill="none" xmlns="http://www.w3.org/2000/svg">
<path d="M38.665 123.5H19.475C21.375 142.595 28.975 159.98 40.47 174.135L54.055 160.55C45.885 150.005 40.375 137.37 38.665 123.5Z" fill="white"/>
<path d="M54.055 67.4499L40.47 53.8649C28.975 68.0199 21.375 85.4049 19.475 104.5H38.665C40.375 90.6299 45.885 77.9949 54.055 67.4499Z" fill="white"/>
<path d="M104.5 38.6649V19.4749C85.405 21.3749 68.02 28.9749 53.865 40.4699L67.45 54.0549C77.995 45.8849 90.63 40.3749 104.5 38.6649Z" fill="white"/>
<path d="M174.135 40.4699C159.98 28.9749 142.595 21.3749 123.5 19.4749V38.6649C137.37 40.3749 150.005 45.8849 160.55 54.0549L174.135 40.4699Z" fill="white"/>
<path d="M173.945 160.55L187.53 174.135C199.025 160.075 206.625 142.595 208.525 123.5H189.335C187.625 137.37 182.115 150.005 173.945 160.55Z" fill="white"/>
<path d="M189.335 104.5H208.525C206.625 85.4049 199.025 68.0199 187.53 53.8649L173.945 67.4499C182.115 77.9949 187.625 90.6299 189.335 104.5Z" fill="white"/>
<path d="M123.5 189.335V208.525C142.595 206.625 159.98 199.025 174.135 187.53L160.55 173.945C150.005 182.115 137.37 187.625 123.5 189.335Z" fill="white"/>
<path d="M53.865 187.53C67.925 199.025 85.405 206.625 104.5 208.525V189.335C90.63 187.625 77.995 182.115 67.45 173.945L53.865 187.53Z" fill="white"/>
<path d="M114 161.5C140.234 161.5 161.5 140.234 161.5 114C161.5 87.7665 140.234 66.5 114 66.5C87.7665 66.5 66.5 87.7665 66.5 114C66.5 140.234 87.7665 161.5 114 161.5Z" fill="white"/>
</svg>
